<svg width="10" height="6" viewBox="0 0 10 6" fill="none" xmlns="http://www.w3.org/2000/svg">
<mask id="path-1-inside-1_128_305" fill="white">
<path d="M10 -7.9486e-08L5 6L-2.62268e-07 3.57628e-07"/>
</mask>
<path d="M10 -7.9486e-08L5 6L-2.62268e-07 3.57628e-07" fill="white"/>
<path d="M10.7682 0.640184C11.1218 0.215907 11.0645 -0.414657 10.6402 -0.768221C10.2159 -1.12179 9.58534 -1.06446 9.23178 -0.640184L10.7682 0.640184ZM5 6L4.23178 6.64018C4.42177 6.86818 4.70322 7 5 7C5.29678 7 5.57823 6.86818 5.76822 6.64018L5 6ZM0.768221 -0.640184C0.414657 -1.06446 -0.215908 -1.12178 -0.640185 -0.768221C-1.06446 -0.414657 -1.12179 0.215908 -0.768222 0.640185L0.768221 -0.640184ZM9.23178 -0.640184L4.23178 5.35982L5.76822 6.64018L10.7682 0.640184L9.23178 -0.640184ZM5.76822 5.35982L0.768221 -0.640184L-0.768222 0.640185L4.23178 6.64018L5.76822 5.35982Z" fill="white" mask="url(#path-1-inside-1_128_305)"/>
</svg>
